HIERARCHY
ROOT Hips
{
	OFFSET 0.000000 0.000000 0.000000
	CHANNELS 6 Xposition Yposition Zposition Zrotation Yrotation Xrotation 
	JOINT LHipJoint
	{
		OFFSET 0.000000 0.000000 0.000000
		CHANNELS 3 Zrotation Yrotation Xrotation
		JOINT LeftUpLeg
		{
			OFFSET 1.363060 -1.794630 0.839290
			CHANNELS 3 Zrotation Yrotation Xrotation
			JOINT LeftLeg
			{
				OFFSET 2.448110 -6.726130 0.000000
				CHANNELS 3 Zrotation Yrotation Xrotation
				JOINT LeftFoot
				{
					OFFSET 2.562200 -7.039590 0.000000
					CHANNELS 3 Zrotation Yrotation Xrotation
					JOINT LeftToeBase
					{
						OFFSET 0.157640 -0.433110 2.322550
						CHANNELS 3 Zrotation Yrotation Xrotation
						End Site
						{
							OFFSET 0.000000 0.000000 0.000000
						}
					}
				}
			}
		}
	}
	JOINT RHipJoint
	{
		OFFSET 0.000000 0.000000 0.000000
		CHANNELS 3 Zrotation Yrotation Xrotation
		JOINT RightUpLeg
		{
			OFFSET -1.305520 -1.794630 0.839290
			CHANNELS 3 Zrotation Yrotation Xrotation
			JOINT RightLeg
			{
				OFFSET -2.542530 -6.985550 0.000000
				CHANNELS 3 Zrotation Yrotation Xrotation
				JOINT RightFoot
				{
					OFFSET -2.568260 -7.056230 0.000000
					CHANNELS 3 Zrotation Yrotation Xrotation
					JOINT RightToeBase
					{
						OFFSET -0.164730 -0.452590 2.363150
						CHANNELS 3 Zrotation Yrotation Xrotation
						End Site
						{
							OFFSET 0.000000 0.000000 0.000000
						}
					}
				}
			}
		}
	}
}
MOTION
Frames: 28
Frame Time: 0.008333
0.467310 15.599394 -0.098431 14.379326 82.328668 53.366207 -10.405834 -1.808903 -2.570814 -12.998689 -1.151635 -69.939336 1.118076 5.894929 78.845002 3.565240 16.520021 -19.419468 -2.897300 0.000000 -15.970700 7.769240 1.626853 -1.904163 14.423622 2.329088 -63.826779 1.758060 -4.622221 61.567705 -3.462240 -5.233192 -33.989115 3.410200 0.000000 -5.988000
0.603190 15.621501 -0.083896 14.168778 82.295311 53.316047 -10.161041 -1.900736 -2.391056 -13.081432 -1.691147 -71.703657 0.985979 5.880073 77.750588 3.670883 16.564484 -19.952275 -3.030999 -0.000000 -15.638600 7.808108 1.606112 -2.006112 14.383759 2.156772 -63.041760 1.825231 -4.554643 61.013831 -3.480618 -5.236907 -34.171212 3.446200 0.000000 -6.550900
0.741265 15.642705 -0.070281 13.910349 82.283287 53.212496 -9.917780 -1.970337 -2.200709 -13.169865 -2.215086 -73.422687 0.839210 5.856414 76.513533 3.788054 16.636028 -20.454623 -3.159200 0.000000 -15.106900 7.845326 1.580679 -2.106723 14.357432 1.981822 -62.233163 1.894321 -4.483801 60.435701 -3.500776 -5.246609 -34.352571 3.484800 -0.000000 -7.053900
0.881525 15.662842 -0.057321 13.646685 82.292597 53.090332 -9.677594 -2.015023 -2.003392 -13.282769 -2.718190 -75.075452 0.675471 5.822956 75.124891 3.912301 16.712036 -20.920743 -3.276800 -0.000000 -14.575000 7.882274 1.550475 -2.207352 14.339512 1.797757 -61.392026 1.964993 -4.409939 59.832810 -3.520983 -5.258790 -34.527742 3.523900 -0.000001 -7.615700
1.024199 15.681843 -0.045102 13.360559 82.324996 52.926846 -9.442122 -2.032353 -1.801333 -13.432061 -3.195106 -76.644885 0.491107 5.779541 73.580097 4.039083 16.761968 -21.377164 -3.386800 -0.000000 -13.887400 7.919255 1.514865 -2.308982 14.333430 1.602342 -60.509651 2.038726 -4.332892 59.204347 -3.542210 -5.269780 -34.713966 3.565100 0.000000 -8.107800
1.169430 15.699508 -0.033510 13.074639 82.380079 52.739777 -9.212742 -2.020560 -1.596509 -13.632897 -3.645079 -78.112183 0.283146 5.724884 71.871606 4.162449 16.756313 -21.823500 -3.484100 -0.000000 -13.137399 7.957578 1.473832 -2.412175 14.335322 1.392345 -59.580499 2.114788 -4.252996 58.552294 -3.563710 -5.279796 -34.907469 3.607700 0.000000 -8.611000
1.317395 15.715684 -0.022491 12.793116 82.457811 52.530627 -8.990951 -1.978806 -1.389396 -13.894294 -4.069949 -79.461857 0.049380 5.657315 69.993645 4.275731 16.666611 -22.250732 -3.560100 0.000000 -12.448000 7.998025 1.427533 -2.517019 14.342731 1.167245 -58.601902 2.192709 -4.170547 57.880061 -3.586212 -5.291413 -35.113002 3.653300 0.000000 -9.103000
1.468243 15.730213 -0.012111 12.515668 82.558117 52.298536 -8.778087 -1.907325 -1.178876 -14.219458 -4.475393 -80.683717 -0.212244 5.574958 67.944588 4.372565 16.465973 -22.658222 -3.609500 0.000000 -11.801200 8.041082 1.376145 -2.623310 14.354050 0.927714 -57.574855 2.271531 -4.085959 57.191679 -3.610394 -5.309486 -35.329825 3.703400 0.000000 -9.592700
1.622093 15.742876 -0.002256 12.259681 82.679880 52.062181 -8.575591 -1.807440 -0.963524 -14.608495 -4.868164 -81.769469 -0.502224 5.475268 65.723537 4.445791 16.134994 -23.019063 -3.619800 -0.000000 -11.384500 8.087380 1.320283 -2.730697 14.364486 0.675395 -56.502042 2.349368 -3.999730 56.492367 -3.636651 -5.341655 -35.550476 3.759601 -0.000001 -10.150100
1.779079 15.753534 0.007048 12.026524 82.822780 51.825693 -8.384844 -1.681774 -0.740158 -15.052631 -5.257176 -82.717102 -0.820355 5.355385 63.334130 4.489616 15.661634 -23.315758 -3.583400 0.000001 -11.251600 8.136894 1.260392 -2.838937 14.372448 0.412430 -55.388405 2.424685 -3.912339 55.786492 -3.665466 -5.395269 -35.767432 3.823500 -0.000001 -10.814900
1.939358 15.762066 0.015606 11.799312 82.987528 51.578964 -8.207321 -1.534469 -0.503740 -15.531894 -5.653723 -83.529993 -1.165234 5.211680 60.784007 4.500434 15.044194 -23.539871 -3.498600 0.000001 -11.346700 8.188518 1.196790 -2.948009 14.380188 0.142353 -54.241447 2.497128 -3.824080 55.078478 -3.698765 -5.476224 -35.987116 3.898500 0.000001 -11.469700
2.102933 15.768347 0.023335 11.579399 83.173496 51.328005 -8.043945 -1.370741 -0.249910 -16.024562 -6.068203 -84.211819 -1.534515 5.039889 58.082139 4.476592 14.292161 -23.684168 -3.367100 -0.000000 -11.624500 8.241543 1.130135 -3.058351 14.387350 -0.132830 -53.067983 2.565582 -3.735345 54.371246 -3.736485 -5.588991 -36.201040 3.985400 -0.000000 -12.142000
2.269766 15.772323 0.030411 11.378249 83.379162 51.087698 -7.895758 -1.196706 0.023729 -16.509016 -6.505003 -84.763616 -1.924231 4.835390 55.235201 4.416410 13.424365 -23.720913 -3.188000 0.000000 -12.300700 8.295612 1.061175 -3.171246 14.392167 -0.412521 -51.870361 2.628629 -3.646326 53.665230 -3.777126 -5.736426 -36.391370 4.082300 0.000000 -12.967899
2.439828 15.773918 0.036594 11.165205 83.603518 50.832641 -7.762959 -1.020125 0.321778 -16.949744 -6.971083 -85.190775 -2.329345 4.592428 52.255932 4.324111 12.469525 -23.669309 -2.976600 0.000000 -13.161500 8.348952 0.990323 -3.287983 14.399486 -0.695004 -50.653447 2.687488 -3.556948 52.961181 -3.821441 -5.914357 -36.570129 4.190200 -0.000000 -13.762000
2.613070 15.773118 0.041840 10.921583 83.842910 50.545486 -7.644882 -0.849372 0.645465 -17.315834 -7.465882 -85.492942 -2.743376 4.305094 49.156379 4.205374 11.462222 -23.545642 -2.747399 -0.000000 -14.114600 8.400919 0.918154 -3.410466 14.410274 -0.981213 -49.416781 2.742504 -3.467144 52.257256 -3.867303 -6.115492 -36.730244 4.305299 0.000000 -14.555900
2.789279 15.769915 0.046306 10.617444 84.092833 50.192793 -7.541096 -0.693390 0.991683 -17.582308 -7.976481 -85.664776 -3.157549 3.968601 45.946561 4.063688 10.436706 -23.337862 -2.507200 0.000000 -15.397400 8.451202 0.844930 -3.541037 14.425613 -1.272218 -48.153121 2.793584 -3.376483 51.548216 -3.911372 -6.331940 -36.854976 4.421600 -0.000000 -15.504600
2.968440 15.764302 0.049772 10.178196 84.346417 49.697475 -7.449194 -0.561981 1.358192 -17.715229 -8.492003 -85.704358 -3.560884 3.578410 42.649552 3.909914 9.433517 -23.090702 -2.276000 0.000000 -16.727600 8.499120 0.770756 -3.681072 14.449005 -1.568705 -46.857813 2.842957 -3.284634 50.832926 -3.952670 -6.548362 -36.961075 4.536201 -0.000000 -16.415600
3.150452 15.756226 0.052232 9.517289 84.594448 48.965531 -7.366699 -0.464329 1.737788 -17.690829 -8.990798 -85.606773 -3.939735 3.133673 39.295568 3.753128 8.489689 -22.828013 -2.065400 0.000000 -18.063500 8.545107 0.695300 -3.831528 14.481545 -1.872647 -45.520387 2.891495 -3.191180 50.107399 -3.987888 -6.750316 -37.043537 4.642200 -0.000000 -17.352600
3.335271 15.745681 0.053731 8.520749 84.828991 47.872056 -7.291965 -0.407563 2.118206 -17.501615 -9.441630 -85.368526 -4.279707 2.639920 35.926590 3.598451 7.630034 -22.554398 -1.878900 0.000001 -19.481500 8.589683 0.617269 -3.992254 14.525787 -2.185110 -44.126297 2.939363 -3.095286 49.363843 -4.013596 -6.927355 -37.088162 4.732800 0.000000 -18.442300
3.522913 15.732493 0.054067 7.042989 85.038176 46.262991 -7.222219 -0.396881 2.489073 -17.133750 -9.821865 -84.997492 -4.563937 2.108313 32.611002 3.457238 6.886629 -22.309629 -1.727000 -0.000001 -20.767900 8.634010 0.535536 -4.160991 14.582908 -2.507135 -42.668809 2.987880 -2.997003 48.603687 -4.028355 -7.065225 -37.106136 4.804000 0.000000 -19.598700
3.713493 15.716540 0.053205 4.947703 85.210857 43.992936 -7.156545 -0.432488 2.836734 -16.595224 -10.106487 -84.510500 -4.778592 1.560155 29.438293 3.335532 6.275830 -22.108962 -1.610900 0.000000 -21.863500 8.679485 0.448240 -4.334029 14.654290 -2.839355 -41.141230 3.037617 -2.896337 47.827389 -4.031192 -7.155266 -37.102443 4.853000 -0.000000 -20.757000
3.907207 15.697727 0.051200 2.169360 85.338603 40.990701 -7.095846 -0.508294 3.148366 -15.917166 -10.279257 -83.931077 -4.917481 1.022960 26.503064 3.234626 5.796784 -21.952670 -1.527000 -0.000000 -22.767100 8.727562 0.352805 -4.505942 14.739068 -3.183018 -39.540612 3.087044 -2.793125 47.027797 -4.019277 -7.198046 -37.046253 4.874000 0.000001 -22.193400
4.104170 15.675764 0.047996 -1.296999 85.409124 37.250693 -7.041495 -0.615038 3.416172 -15.125845 -10.338195 -83.304061 -4.978052 0.529896 23.930701 3.159222 5.454306 -21.855358 -1.474800 0.000000 -23.364900 8.779905 0.247642 -4.670885 14.834050 -3.541300 -37.878138 3.136994 -2.689263 46.216578 -3.993165 -7.187557 -36.952298 4.866900 -0.000000 -23.714800
4.304626 15.650469 0.043655 -5.314318 85.415173 32.914642 -6.996975 -0.739057 3.635215 -14.270582 -10.290327 -82.680481 -4.968899 0.113580 21.835216 3.107495 5.234151 -21.807437 -1.447900 -0.000000 -23.680300 8.837334 0.130835 -4.822406 14.933225 -3.917106 -36.169761 3.186769 -2.586562 45.399992 -3.952001 -7.125491 -36.807443 4.829600 0.000001 -25.387600
4.508825 15.621827 0.038388 -9.580540 85.356272 28.297158 -6.966926 -0.866145 3.809431 -13.390915 -10.163626 -82.109271 -4.901355 -0.203339 20.294574 3.079064 5.134678 -21.781770 -1.438600 -0.000000 -23.778000 8.899153 0.002538 -4.955863 15.024038 -4.317965 -34.441442 3.235613 -2.486956 44.585074 -3.894679 -7.014161 -36.594753 4.759700 -0.000000 -27.269800
4.716785 15.589555 0.032334 -13.827273 85.232627 23.676747 -6.955966 -0.983834 3.939966 -12.537146 -9.972769 -81.654902 -4.792122 -0.397096 19.406857 3.068223 5.131784 -21.756643 -1.438400 -0.000000 -23.708300 8.964885 -0.137397 -5.066531 15.095602 -4.747148 -32.720298 3.283394 -2.393201 43.794001 -3.820667 -6.848980 -36.318419 4.656100 0.000000 -29.246100
4.928711 15.553783 0.025789 -17.741693 85.056505 19.386022 -6.967969 -1.082964 4.039712 -11.718699 -9.758258 -81.356481 -4.647685 -0.464910 19.180743 3.075506 5.244183 -21.674159 -1.437900 -0.000000 -23.598700 9.033212 -0.285918 -5.151924 15.131390 -5.207763 -31.037794 3.327121 -2.305811 43.032319 -3.726825 -6.634250 -35.938209 4.513900 0.000001 -31.613700
5.144435 15.514442 0.018906 -21.186284 84.837800 15.570399 -7.004845 -1.157629 4.109660 -10.972698 -9.527021 -81.260005 -4.479071 -0.398506 19.657529 3.090472 5.442120 -21.491394 -1.424400 0.000000 -23.511400 9.104491 -0.441257 -5.210398 15.120429 -5.702999 -29.417865 3.366899 -2.226700 42.327322 -3.612285 -6.357077 -35.470507 4.332100 0.000001 -34.111301
